<?xml version="1.0" encoding="utf-8"?>
<svg viewBox="35.564 -144.585 149.661 173.931" xmlns="http://www.w3.org/2000/svg">
  <defs>
    <clipPath id="clipPath3136-9">
      <path d="m 0,0 595.276,0 0,841.89 L 0,841.89 0,0 z" id="path3138-2"/>
    </clipPath>
    <clipPath id="clipPath3168-0">
      <path d="m 0,0 595.276,0 0,841.89 L 0,841.89 0,0 z" id="path3170-4"/>
    </clipPath>
    <clipPath id="clipPath3192-0">
      <path d="m 0,0 595.276,0 0,841.89 L 0,841.89 0,0 z" id="path3194-7"/>
    </clipPath>
    <clipPath id="clipPath3216-3">
      <path d="m 0,0 595.276,0 0,841.89 L 0,841.89 0,0 z" id="path3218-0"/>
    </clipPath>
    <clipPath id="clipPath3248-1">
      <path d="m 0,0 595.276,0 0,841.89 L 0,841.89 0,0 z" id="path3250-2"/>
    </clipPath>
  </defs>
  <g>
    <g transform="matrix(4.761684, 0, 0, 4.761684, 35.822823, -146.758057)" style="">
      <path d="M 31.064 18.363 C 31.329 16.903 31.379 15.499 31.064 13.955 L 29.369 14.254 C 29.214 13.117 28.919 12.023 28.504 10.99 L 30.099 10.355 C 29.6 8.959 28.944 7.715 27.896 6.537 L 26.553 7.612 C 25.856 6.723 25.085 5.949 24.195 5.253 L 25.26 3.903 C 24.13 2.943 22.941 2.2 21.444 1.698 L 20.856 3.314 C 19.83 2.898 18.729 2.595 17.599 2.435 L 17.845 0.734 C 16.388 0.47 14.984 0.419 13.438 0.734 C 13.456 0.868 13.736 2.43 13.736 2.43 C 12.599 2.585 11.506 2.879 10.474 3.294 L 9.838 1.698 C 8.443 2.195 7.204 2.854 6.019 3.903 L 7.129 5.222 C 6.238 5.915 5.434 6.715 4.736 7.602 L 3.386 6.537 C 2.429 7.668 1.681 8.857 1.183 10.355 L 2.796 10.942 C 2.379 11.972 2.079 13.062 1.92 14.199 L 0.219 13.955 C -0.047 15.41 -0.097 16.813 0.219 18.363 L 1.91 18.063 C 2.068 19.198 2.364 20.292 2.776 21.324 L 1.183 21.959 C 1.68 23.357 2.339 24.597 3.386 25.778 L 4.705 24.669 C 5.399 25.562 6.199 26.36 7.086 27.059 L 6.019 28.409 C 7.15 29.367 8.34 30.117 9.838 30.615 L 10.426 29.002 C 11.453 29.418 12.546 29.717 13.685 29.874 L 13.438 31.578 C 14.895 31.844 16.299 31.895 17.845 31.578 L 17.545 29.885 C 18.683 29.73 19.775 29.432 20.809 29.019 L 21.444 30.615 C 22.84 30.117 24.079 29.46 25.26 28.409 L 24.154 27.093 C 25.045 26.4 25.848 25.599 26.545 24.71 L 27.896 25.778 C 28.854 24.647 29.6 23.459 30.099 21.959 L 28.485 21.37 C 28.903 20.343 29.201 19.249 29.361 18.114 L 31.064 18.363 L 31.064 18.363 Z M 15.641 4.62 C 19.526 4.62 22.999 6.593 25.089 9.539 L 22.434 12.045 L 23.019 12.888 L 15.641 17.765 L 8.264 12.888 L 8.849 12.045 L 6.191 9.539 C 8.279 6.565 11.733 4.62 15.641 4.62 M 24.156 23.938 L 24.157 23.938 L 24.156 23.938 C 22.046 26.245 19.013 27.692 15.641 27.692 C 12.268 27.692 9.235 26.245 7.125 23.938 C 5.25 21.888 4.105 19.154 4.105 16.155 C 4.105 14.499 4.454 12.929 5.083 11.505 L 6.124 12.433 L 5.543 13.147 L 10.853 16.518 L 10.63 15.965 L 14.713 18.51 L 13.325 18.202 L 9.695 21.119 L 8.463 20.665 L 7.794 22.768 L 7.223 22.423 L 7.125 23.938 L 8.604 23.274 L 8.058 22.947 L 8.979 22.088 L 9.76 22.352 L 15.01 20.279 L 15.641 19.173 L 16.271 20.279 L 21.521 22.352 L 22.304 22.088 L 23.224 22.947 L 22.679 23.274 L 24.156 23.938 L 24.059 22.423 L 23.486 22.768 L 22.818 20.665 L 21.588 21.119 L 18.029 18.202 L 16.57 18.51 L 20.73 15.853 L 20.538 16.429 L 25.739 13.147 L 25.158 12.433 L 26.2 11.505 C 26.843 12.942 27.176 14.479 27.176 16.155 C 27.176 19.154 26.031 21.888 24.156 23.938" id="path3122" style="fill:#dbdbdb;fill-opacity:1;fill-rule:nonzero;stroke:none"/>
      <g transform="matrix(1.25, 0, 0, -1.25, 21.582825, 21.163757)" id="g3124">
        <path d="M 0,0 -4.814,-3.209 -9.487,0 l 0,10.216 9.487,0 L 0,0 z" id="path3126" style="fill:#96172e;fill-opacity:1;fill-rule:nonzero;stroke:none"/>
      </g>
      <path d="M 21.583 21.164 L 15.565 25.175 L 9.724 21.164 L 9.724 8.394 L 21.583 8.394 L 21.583 21.164 Z" id="path3130" style="fill:none;stroke:#dbdbdb;stroke-width:0.34375;stroke-linecap:butt;stroke-linejoin:miter;stroke-miterlimit:4;stroke-opacity:1;stroke-dasharray:none"/>
      <g transform="matrix(1.25, 0, 0, -1.25, -444.732666, 120.340973)" id="g3132">
        <g clip-path="url(#clipPath3136-9)" id="g3134">
          <g transform="translate(371.3349,81.8479)" id="g3140">
            <path d="M 0,0 C -0.181,0.079 -0.336,0.155 -0.104,0.399 0.128,0.645 0.025,0.683 -0.39,0.503 -0.802,0.322 -1.244,0.425 -1.244,0.425 -1.237,0.385 -1.265,0.272 -1.297,0.161 c 0.098,0.383 0.085,0.777 -0.23,1.018 0.151,-0.113 0.193,-0.222 0.193,-0.222 l 0.246,0.14 c 0.245,0.143 0.545,0.054 0.842,0.014 0.297,-0.039 -0.027,0.209 -0.181,0.363 -0.157,0.154 0.141,0.231 0.387,0.504 0.252,0.28 -0.401,0.012 -0.401,0.012 0,0 -0.297,-0.179 -0.349,0.08 -0.053,0.259 -0.208,0.57 -0.233,-0.038 -0.027,-0.61 -0.64,-0.767 -0.64,-0.767 -0.469,0.234 -1.049,0.311 -0.837,0.35 0.333,0.061 0.246,0.072 0.351,0.097 0.148,0.027 0.252,-0.188 0.237,-0.134 -0.011,0.05 -0.011,0.108 -0.004,0.166 0.093,0.088 0.029,0.338 0.029,0.338 l -0.036,-0.004 -0.012,0 c -0.004,0 -0.007,0.003 -0.01,0.003 C -1.954,2.078 -1.962,2.076 -1.972,2.074 l -0.003,0 -0.265,-0.017 c -0.089,0.01 -0.095,0.045 -0.095,0.045 0,0 -0.108,0.209 -0.032,0.23 0.102,0.026 0.295,-0.135 0.416,-0.139 0.124,0 0.193,0.233 0.024,0.447 0,0 0.081,0.166 -0.074,0.178 -0.157,0.007 -0.43,0.025 -0.552,0.099 C -2.675,2.992 -2.701,3.06 -2.931,3.032 -2.974,3.029 -3.223,2.914 -3.373,2.879 -3.379,2.878 -3.482,2.917 -3.489,2.917 -3.531,2.91 -3.616,3.01 -3.851,3.075 c 0,0 -0.143,0.054 -0.008,-0.78 C -4,2.082 -3.988,2.107 -4.13,1.927 c 0,0 0.13,-0.182 0.156,-0.273 L -4.195,1.356 -3.871,1.177 -4.091,0.826 c 0,0 0.117,-0.09 0.323,-0.208 -0.02,-0.02 -0.117,-0.128 -0.117,-0.128 0,0 0.182,-0.66 -0.206,-0.835 -0.389,-0.174 -0.524,-0.272 -0.524,-0.272 0,0 -0.174,-0.215 0.058,0.719 0.233,0.932 0.098,2.835 -1.049,2.718 -1.145,-0.118 -0.736,-0.855 -0.621,-1.087 0.115,-0.234 0.369,-0.699 0.194,-1.243 -0.197,-0.615 0.02,-0.465 0.134,-0.157 0.118,0.312 0.672,0.785 0.468,1.672 -0.175,0.757 0.117,0.544 0.213,0.465 0,0 1.026,-0.527 0.116,-2.445 -0.174,-0.37 -0.155,-0.583 0,-0.894 0,0 0.118,-0.195 -0.097,-0.505 0,0 0.389,-0.681 0.176,-1.087 -0.212,-0.408 -0.059,-0.444 0.175,-0.721 0.233,-0.269 0.64,-0.58 0.64,-0.58 l 0.855,0 c 0,0 0.156,0.58 -0.506,0.58 -0.349,0 -0.486,0.277 -0.486,0.277 0,0 -0.212,0.27 0.177,0.324 0.581,0.091 0.505,-0.036 0.505,-0.036 l 0.542,0.448 c 0,0 0.33,-0.194 0.254,-0.605 -0.078,-0.408 0.076,-0.444 0.329,-0.736 l 1.146,0 c 0,0 0.175,0.564 -0.601,0.485 0,0 -0.447,0.079 -0.118,0.641 0.331,0.564 -0.504,1.067 -0.601,1.164 0,0 -0.117,0.137 0.077,0.156 0.195,0.02 0.446,0.136 0.524,0.29 0,0 0.252,-0.037 0.29,-0.174 0,0 0.295,0.42 0.464,0.905 -0.017,-0.052 -0.028,-0.088 -0.028,-0.088 0.18,-0.026 0.517,-0.064 0.801,-0.454 0.286,-0.388 0.22,-0.011 0.22,0.208 0,0.22 0.208,0.116 0.545,0.052 C 0.515,-0.39 0.259,-0.12 0,0 m -1.533,1.184 c -0.026,0.02 -0.051,0.036 -0.081,0.054 0.03,-0.018 0.056,-0.036 0.081,-0.054" id="path3142" style="fill:#dbdbdb;fill-opacity:1;fill-rule:nonzero;stroke:none"/>
          </g>
          <g transform="translate(365.3633,86.7201)" id="g3144">
            <path d="m 0,0 0.476,0 c 0.008,0.028 0.014,0.06 0.02,0.089 l -0.521,0 C -0.018,0.06 -0.009,0.028 0,0 m -0.01,0.491 0.494,0 C 0.475,0.529 0.463,0.561 0.455,0.586 l -0.432,0 0.009,0.03 C 0.022,0.588 0.003,0.545 -0.01,0.491 m -0.029,-0.173 0.549,0 C 0.507,0.355 0.503,0.39 0.498,0.421 l -0.524,0 C -0.031,0.39 -0.037,0.355 -0.039,0.318 m 0.005,-0.159 0.539,0 c 0.005,0.03 0.007,0.06 0.007,0.091 l -0.552,0 c 0,-0.031 0.002,-0.061 0.006,-0.091 M 1.284,0.026 c 0,0 -0.388,0.549 -0.478,0.982 C 0.714,1.442 0.51,1.567 0.51,1.567 c 0,0 0,0.005 0.002,0.014 0.037,0.054 0.061,0.118 0.061,0.189 0,0.104 -0.05,0.193 -0.127,0.253 L 0.457,2.017 c 0,0 0,0.047 0.092,0.097 0,0 0.078,0.109 0.016,0.081 C 0.503,2.168 0.423,2.103 0.401,2.052 0.356,2.076 0.303,2.091 0.25,2.091 0.195,2.091 0.144,2.076 0.1,2.053 0.078,2.104 -0.002,2.168 -0.06,2.195 -0.124,2.223 -0.044,2.114 -0.044,2.114 0.044,2.064 0.046,2.023 0.046,2.017 -0.025,1.96 -0.073,1.87 -0.073,1.77 c 0,-0.057 0.016,-0.109 0.042,-0.153 0.001,-0.024 0.003,-0.038 0.003,-0.038 0,0 -0.205,-0.127 -0.296,-0.56 -0.091,-0.433 -0.48,-0.982 -0.48,-0.982 0,0 -0.147,-0.317 0.252,-0.011 0.387,0.299 0.495,0.501 0.595,0.617 0.003,0.004 0.006,0.008 0.009,0.01 0,0 -0.002,-0.003 -0.006,-0.01 l 0.385,0 0.002,-0.004 C 0.533,0.525 0.64,0.32 1.033,0.015 1.432,-0.292 1.284,0.026 1.284,0.026 m -1.223,-0.186 0.358,0 c 0.014,0.03 0.026,0.061 0.037,0.091 l -0.433,0 C 0.032,-0.099 0.046,-0.13 0.061,-0.16 M 0.114,-0.256 C 0.262,-0.5 0.326,-0.339 0.37,-0.26 c 0.006,0.01 0.01,0.019 0.015,0.03 l -0.285,0 c 0.005,-0.008 0.009,-0.015 0.014,-0.026" id="path3146" style="fill:#dbdbdb;fill-opacity:1;fill-rule:nonzero;stroke:none"/>
          </g>
          <g transform="translate(368.0437,86.7201)" id="g3148">
            <path d="m 0,0 0.475,0 c 0.009,0.028 0.018,0.06 0.021,0.089 l -0.519,0 C -0.018,0.06 -0.01,0.028 0,0 m -0.012,0.491 0.496,0 c -0.011,0.038 -0.02,0.07 -0.03,0.095 l -0.431,0 0.01,0.03 C 0.022,0.588 0.004,0.545 -0.012,0.491 m -0.028,-0.173 0.55,0 C 0.507,0.355 0.503,0.39 0.498,0.421 l -0.524,0 C -0.032,0.39 -0.037,0.355 -0.04,0.318 m 0.006,-0.159 0.54,0 c 0.003,0.03 0.005,0.06 0.006,0.091 l -0.553,0 C -0.04,0.219 -0.037,0.189 -0.034,0.159 M 1.285,0.026 c 0,0 -0.388,0.549 -0.479,0.982 -0.092,0.434 -0.297,0.559 -0.297,0.559 0,0 0.002,0.005 0.003,0.014 0.037,0.054 0.06,0.118 0.06,0.189 0,0.104 -0.05,0.193 -0.125,0.253 l 0.01,-0.006 c 0,0 0,0.047 0.09,0.097 0,0 0.08,0.109 0.018,0.081 C 0.505,2.168 0.423,2.103 0.402,2.052 0.357,2.076 0.306,2.091 0.249,2.091 0.196,2.091 0.145,2.076 0.101,2.053 0.078,2.104 0,2.168 -0.061,2.195 -0.125,2.223 -0.043,2.114 -0.043,2.114 0.045,2.064 0.047,2.023 0.047,2.017 -0.023,1.96 -0.073,1.87 -0.073,1.77 c 0,-0.057 0.016,-0.109 0.041,-0.153 0.002,-0.024 0.006,-0.038 0.006,-0.038 0,0 -0.206,-0.127 -0.298,-0.56 -0.09,-0.433 -0.479,-0.982 -0.479,-0.982 0,0 -0.147,-0.317 0.251,-0.011 0.386,0.299 0.495,0.501 0.597,0.617 0.001,0.004 0.004,0.008 0.008,0.01 0,0 -0.002,-0.003 -0.007,-0.01 l 0.385,0 0.003,-0.004 C 0.535,0.525 0.641,0.32 1.035,0.015 c 0.397,-0.307 0.25,0.011 0.25,0.011 m -1.223,-0.186 0.357,0 c 0.015,0.03 0.026,0.061 0.036,0.091 l -0.432,0 C 0.034,-0.099 0.047,-0.13 0.062,-0.16 M 0.114,-0.256 C 0.265,-0.5 0.327,-0.339 0.37,-0.26 c 0.006,0.01 0.01,0.019 0.017,0.03 l -0.287,0 c 0.006,-0.008 0.009,-0.015 0.014,-0.026" id="path3150" style="fill:#dbdbdb;fill-opacity:1;fill-rule:nonzero;stroke:none"/>
          </g>
          <g transform="translate(370.7729,86.7201)" id="g3152">
            <path d="m 0,0 0.475,0 c 0.01,0.028 0.015,0.06 0.022,0.089 l -0.522,0 C -0.017,0.06 -0.01,0.028 0,0 m -0.012,0.491 0.495,0 C 0.474,0.529 0.464,0.561 0.454,0.586 l -0.432,0 0.011,0.03 C 0.02,0.588 0.004,0.545 -0.012,0.491 m -0.027,-0.173 0.548,0 C 0.508,0.355 0.502,0.39 0.497,0.421 l -0.523,0 C -0.033,0.39 -0.037,0.355 -0.039,0.318 m 0.004,-0.159 0.541,0 c 0.003,0.03 0.005,0.06 0.005,0.091 l -0.551,0 c 0,-0.031 0.003,-0.061 0.005,-0.091 m 1.32,-0.133 c 0,0 -0.388,0.549 -0.481,0.982 -0.09,0.434 -0.295,0.559 -0.295,0.559 0,0 0.002,0.005 0.002,0.014 C 0.547,1.635 0.57,1.699 0.57,1.77 0.57,1.874 0.523,1.963 0.448,2.023 L 0.456,2.017 c 0,0 0,0.047 0.091,0.097 0,0 0.081,0.109 0.018,0.081 C 0.503,2.168 0.422,2.103 0.402,2.052 0.358,2.076 0.304,2.091 0.249,2.091 0.194,2.091 0.144,2.076 0.1,2.053 0.078,2.104 -0.002,2.168 -0.061,2.195 -0.124,2.223 -0.045,2.114 -0.045,2.114 0.043,2.064 0.046,2.023 0.046,2.017 -0.026,1.96 -0.075,1.87 -0.075,1.77 c 0,-0.057 0.018,-0.109 0.044,-0.153 0,-0.024 0.004,-0.038 0.004,-0.038 0,0 -0.207,-0.127 -0.297,-0.56 -0.091,-0.433 -0.478,-0.982 -0.478,-0.982 0,0 -0.149,-0.317 0.249,-0.011 0.386,0.299 0.496,0.501 0.596,0.617 0.003,0.004 0.007,0.008 0.011,0.01 0,0 -0.004,-0.003 -0.008,-0.01 l 0.384,0 0.002,-0.004 C 0.534,0.525 0.64,0.32 1.033,0.015 c 0.4,-0.307 0.252,0.011 0.252,0.011 m -1.223,-0.186 0.357,0 c 0.013,0.03 0.026,0.061 0.037,0.091 l -0.434,0 C 0.033,-0.099 0.046,-0.13 0.062,-0.16 M 0.114,-0.256 C 0.263,-0.5 0.327,-0.339 0.371,-0.26 c 0.005,0.01 0.01,0.019 0.013,0.03 l -0.284,0 c 0.004,-0.008 0.009,-0.015 0.014,-0.026" id="path3154" style="fill:#dbdbdb;fill-opacity:1;fill-rule:nonzero;stroke:none"/>
          </g>
        </g>
      </g>
    </g>
    <g>
      <g transform="matrix(1.25, 0, 0, -1.25, 36.475952, 2.57251)" id="g3160">
        <path d="m 0,0 4.481,0 0,-0.84 -3.492,0 0,-2.225 3.323,0 0,-0.83 -3.323,0 0,-2.374 3.571,0 0,-0.87 -4.56,0 L 0,0 z m 3.531,2.058 -1.198,-1.426 -0.642,0 0.812,1.426 1.028,0 z" id="path3162" style="fill:#dbdbdb;fill-opacity:1;fill-rule:nonzero;stroke:none"/>
      </g>
      <g transform="matrix(1.25, 0, 0, -1.25, -444.732666, 120.340973)" id="g3164">
        <g clip-path="url(#clipPath3168-0)" id="g3166">
          <g transform="translate(395.433,92.2858)" id="g3172">
            <path d="m 0,0 c -0.039,0.248 -0.169,1.237 -1.543,1.237 -1.721,0 -2.027,-1.76 -2.027,-2.945 0,-1.347 0.385,-2.8 2.018,-2.8 0.435,0 0.849,0.109 1.156,0.425 0.257,0.277 0.316,0.584 0.347,0.752 l 1.087,0 c -0.149,-1.404 -1.445,-1.988 -2.67,-1.988 -2.511,0 -2.995,2.215 -2.995,3.599 0,1.502 0.582,3.748 3.124,3.748 1.008,0 2.433,-0.404 2.56,-2.028 L 0,0 z" id="path3174" style="fill:#dbdbdb;fill-opacity:1;fill-rule:nonzero;stroke:none"/>
          </g>
          <g transform="translate(398.3637,93.4437)" id="g3176">
            <path d="m 0,0 c 0.741,0.802 1.721,0.959 2.383,0.959 1.978,0 3.224,-1.265 3.224,-3.688 0,-1.898 -0.762,-3.808 -3.302,-3.808 -2.434,0 -3.224,1.731 -3.224,3.69 0,0.809 0.137,2.007 0.919,2.847 m 0.752,-5.044 c 0.405,-0.504 1.018,-0.651 1.582,-0.651 0.584,0 1.166,0.159 1.582,0.651 0.584,0.713 0.643,1.841 0.643,2.325 0,1.623 -0.535,2.847 -2.165,2.847 -1.81,0 -2.275,-1.453 -2.275,-2.916 0,-0.782 0.138,-1.642 0.633,-2.256" id="path3178" style="fill:#dbdbdb;fill-opacity:1;fill-rule:nonzero;stroke:none"/>
          </g>
        </g>
      </g>
      <g transform="matrix(1.25, 0, 0, -1.25, 62.115601, 2.57251)" id="g3180">
        <path d="m 0,0 0.978,0 0,-6.26 3.323,0 0,-0.879 L 0,-7.139 0,0 z" id="path3182" style="fill:#dbdbdb;fill-opacity:1;fill-rule:nonzero;stroke:none"/>
      </g>
      <g transform="matrix(1.25, 0, 0, -1.25, 68.779968, 2.57251)" id="g3184">
        <path d="m 0,0 4.481,0 0,-0.84 -3.491,0 0,-2.225 3.322,0 0,-0.83 -3.322,0 0,-2.374 3.569,0 0,-0.87 L 0,-7.139 0,0 z" id="path3186" style="fill:#dbdbdb;fill-opacity:1;fill-rule:nonzero;stroke:none"/>
      </g>
      <g transform="matrix(1.25, 0, 0, -1.25, -444.732666, 120.340973)" id="g3188">
        <g clip-path="url(#clipPath3192-0)" id="g3190">
          <g transform="translate(391.8078,81.0813)" id="g3196">
            <path d="m 0,0 c -0.063,0.393 -0.268,1.973 -2.461,1.973 -2.746,0 -3.234,-2.81 -3.234,-4.702 0,-2.147 0.615,-4.465 3.22,-4.465 0.693,0 1.355,0.173 1.843,0.679 0.411,0.441 0.506,0.932 0.554,1.198 l 1.734,0 c -0.236,-2.24 -2.303,-3.171 -4.259,-3.171 -4.007,0 -4.779,3.534 -4.779,5.744 0,2.397 0.93,5.979 4.985,5.979 1.609,0 3.88,-0.648 4.085,-3.235 L 0,0 z" id="path3198" style="fill:#dbdbdb;fill-opacity:1;fill-rule:nonzero;stroke:none"/>
          </g>
        </g>
      </g>
      <g transform="matrix(1.25, 0, 0, -1.25, 49.36969, 15.14386)" id="g3200">
        <path d="m 0,0 7.146,0 0,-1.34 -5.569,0 0,-3.55 5.302,0 0,-1.325 -5.302,0 0,-3.787 5.696,0 0,-1.39 -7.273,0 L 0,0 z" id="path3202" style="fill:#dbdbdb;fill-opacity:1;fill-rule:nonzero;stroke:none"/>
      </g>
      <g transform="matrix(1.25, 0, 0, -1.25, 61.795685, 15.14386)" id="g3204">
        <path d="m 0,0 2.194,0 5.6,-9.418 0,9.418 1.45,0 0,-11.392 -2.019,0 -5.79,9.673 0,-9.673 -1.435,0 L 0,0 z" id="path3206" style="fill:#dbdbdb;fill-opacity:1;fill-rule:nonzero;stroke:none"/>
      </g>
      <g transform="matrix(1.25, 0, 0, -1.25, 79.963837, 29.383759)" id="g3208">
        <path d="m 0,0 0,10.052 -3.819,0 0,1.34 9.198,0 0,-1.34 -3.816,0 L 1.563,0 0,0 z" id="path3210" style="fill:#dbdbdb;fill-opacity:1;fill-rule:nonzero;stroke:none"/>
      </g>
      <g transform="matrix(1.25, 0, 0, -1.25, -444.732666, 120.340973)" id="g3212">
        <g clip-path="url(#clipPath3216-3)" id="g3214">
          <g transform="translate(426.6072,84.1577)" id="g3220">
            <path d="M 0,0 4.069,0 C 4.653,0 5.853,0 6.688,-0.536 7.54,-1.073 7.95,-1.94 7.95,-2.855 7.95,-3.661 7.652,-4.37 7.145,-4.875 6.657,-5.364 6.151,-5.521 5.804,-5.616 6.894,-5.9 7.382,-6.39 7.54,-7.809 c 0.159,-1.342 0.268,-2.32 0.712,-3.583 l -1.69,0 c -0.252,0.759 -0.411,2.146 -0.52,3.014 -0.189,1.657 -0.584,2.131 -2.494,2.131 l -1.987,0 0,-5.145 -1.561,0 L 0,0 z m 1.53,-4.907 2.492,0 c 0.174,0 1.073,0 1.499,0.253 0.22,0.126 0.774,0.536 0.774,1.483 0,1.845 -1.642,1.845 -2.273,1.845 l -2.492,0 0,-3.581 z" id="path3222" style="fill:#dbdbdb;fill-opacity:1;fill-rule:nonzero;stroke:none"/>
          </g>
        </g>
      </g>
      <g transform="matrix(1.25, 0, 0, -1.25, 106.156708, 15.14386)" id="g3224">
        <path d="m 0,0 1.689,0 4.606,-11.392 -1.72,0 -1.23,2.969 -5.284,0 -1.231,-2.969 -1.625,0 L 0,0 z m -1.435,-7.147 4.307,0 -2.099,5.586 -2.208,-5.586 z" id="path3226" style="fill:#dbdbdb;fill-opacity:1;fill-rule:nonzero;stroke:none"/>
      </g>
      <g transform="matrix(1.25, 0, 0, -1.25, 116.060944, 15.14386)" id="g3228">
        <path d="m 0,0 1.562,0 0,-9.986 5.3,0 0,-1.406 -6.862,0 L 0,0 z" id="path3230" style="fill:#dbdbdb;fill-opacity:1;fill-rule:nonzero;stroke:none"/>
      </g>
      <g transform="matrix(1.25, 0, 0, -1.25, 126.694092, 15.14386)" id="g3232">
        <path d="m 0,0 7.145,0 0,-1.34 -5.567,0 0,-3.55 5.3,0 0,-1.325 -5.3,0 0,-3.787 5.694,0 0,-1.39 -7.272,0 L 0,0 z" id="path3234" style="fill:#dbdbdb;fill-opacity:1;fill-rule:nonzero;stroke:none"/>
      </g>
      <g transform="matrix(1.25, 0, 0, -1.25, 140.195221, 29.383759)" id="g3236">
        <path d="m 0,0 0,11.392 1.027,0 0,-10.443 5.726,0 L 6.753,0 0,0 z" id="path3238" style="fill:#96172e;fill-opacity:1;fill-rule:nonzero;stroke:none"/>
      </g>
      <g transform="matrix(1.25, 0, 0, -1.25, 151.83371, 23.228516)" id="g3240">
        <path d="m 0,0 -4.195,6.468 1.309,0 3.487,-5.507 3.487,5.507 1.105,0 -4.167,-6.436 0,-4.956 L 0,-4.924 0,0 z" id="path3242" style="fill:#96172e;fill-opacity:1;fill-rule:nonzero;stroke:none"/>
      </g>
      <g transform="matrix(1.25, 0, 0, -1.25, -444.732666, 120.340973)" id="g3244">
        <g clip-path="url(#clipPath3248-1)" id="g3246">
          <g transform="translate(487.5273,72.5296)" id="g3252">
            <path d="m 0,0 c -3.267,0 -5.081,2.382 -5.081,5.932 0,3.552 1.814,5.933 5.081,5.933 3.267,0 5.08,-2.381 5.08,-5.933 C 5.08,2.382 3.267,0 0,0 m 0,0.949 c 2.838,0 3.975,2.491 3.975,4.983 0,2.493 -1.137,4.986 -3.975,4.986 -2.841,0 -3.975,-2.493 -3.975,-4.986 0,-2.492 1.134,-4.983 3.975,-4.983" id="path3254" style="fill:#96172e;fill-opacity:1;fill-rule:nonzero;stroke:none"/>
          </g>
        </g>
      </g>
      <g transform="matrix(1.25, 0, 0, -1.25, 174.1651, 15.14386)" id="g3256">
        <path d="m 0,0 1.168,0 6.279,-10.018 0.029,0 0,10.018 1.028,0 0,-11.392 -1.292,0 -6.155,9.846 -0.032,0 0,-9.846 -1.025,0 L 0,0 z" id="path3258" style="fill:#96172e;fill-opacity:1;fill-rule:nonzero;stroke:none"/>
      </g>
    </g>
  </g>
</svg>